# Blender v2.77 (sub 0) OBJ File: 'mod_walls.blend'
# www.blender.org
mtllib roof_3over4.mtl
o roof_3:4_FloorPrototype04x01x04_(5).007
v -0.000000 2.750000 0.000000
v 0.000000 3.000000 0.000000
v -0.000000 0.000000 -4.000000
v -4.000000 -0.000000 -4.000000
v -4.000000 2.750000 0.000000
v -4.000000 3.000000 0.000000
v -4.000000 -0.197069 -3.894138
v -0.000000 -0.197069 -3.894138
vt 12.0000 8.0000
vt 10.0000 8.0000
vt 10.0000 0.2117
vt 12.0000 0.2117
vt 14.0000 8.0000
vt 14.0000 0.0000
vt 8.0000 -0.0000
vt 8.0000 8.0000
vn 0.6193 -0.3496 0.7030
vn -0.6193 -0.3496 0.7030
vn -0.5696 -0.8030 -0.1754
vn 0.5696 -0.8030 -0.1754
vn 0.5509 0.7465 0.3732
vn 0.5857 0.1746 -0.7915
vn -0.5857 0.1746 -0.7915
vn -0.5509 0.7465 0.3732
usemtl None
s 1
f 1/1/1 5/2/2 7/3/3 8/4/4
f 2/5/5 3/6/6 4/7/7 6/8/8
f 3/6/6 8/4/4 7/3/3 4/7/7
f 5/2/2 1/1/1 2/5/5 6/8/8
f 4/7/7 7/3/3 5/2/2 6/8/8
f 8/4/4 3/6/6 2/5/5 1/1/1
