# Blender v2.77 (sub 0) OBJ File: 'mod_walls.blend'
# www.blender.org
mtllib wall_supports.mtl
o support_PillarPrototype02x08x02.001
v -4.000000 4.000000 -0.161917
v -4.000000 4.000000 0.000000
v -4.000000 3.638351 0.000000
v 0.000000 3.638351 0.000001
v -4.000000 3.638351 -0.161917
v 0.000000 3.638351 -0.161917
v 0.000000 4.000000 0.000001
v 0.000000 4.000000 -0.161917
v -0.500000 -0.000000 0.500000
v -0.500000 4.000000 0.000001
v 0.000000 4.000000 0.500001
v 0.000000 -0.000000 0.500000
v 0.000000 4.000000 0.000001
v 0.000000 0.000000 0.000000
v -0.500000 0.000000 0.000000
v -0.500000 4.000000 0.500001
v -3.500000 0.000000 0.000000
v -4.000000 -0.000000 0.000000
v -4.000000 4.000000 0.500001
v -3.500000 4.000000 0.500001
v -4.000000 -0.000000 0.500000
v -3.500000 -0.000000 0.500000
v -3.500000 4.000000 0.000001
v -4.000000 4.000000 0.000001
vt 8.0000 -0.0000
vt 8.0000 8.0000
vt 8.0000 8.0000
vt 8.0000 -0.0000
vt 6.0000 8.0000
vt 6.0000 0.0000
vt 6.0000 0.0000
vt 6.0000 8.0000
vt 12.0000 0.0000
vt 14.0000 0.0000
vt 14.0000 8.0000
vt 12.0000 8.0000
vt 0.3330 0.6462
vt 0.3330 0.7305
vt 0.4173 0.7305
vt 0.4173 0.6462
vt 0.3330 0.6462
vt 0.4173 0.6462
vt 0.4173 0.7305
vt 0.3330 0.7305
vt 10.0000 0.0000
vt 10.0000 8.0000
vt 8.0000 8.0000
vt 8.0000 -0.0000
vt 10.0000 0.0000
vt 10.0000 8.0000
vt 6.0000 8.0000
vt 6.0000 0.0000
vt 8.0000 -0.0000
vt 8.0000 8.0000
vt 12.0000 0.0000
vt 14.0000 0.0000
vt 14.0000 8.0000
vt 12.0000 8.0000
vt 0.3330 0.6462
vt 0.3330 0.7305
vt 0.4173 0.7305
vt 0.4173 0.6462
vt 0.3330 0.6462
vt 0.4173 0.6462
vt 0.4173 0.7305
vt 0.3330 0.7305
vt 6.0000 8.0000
vt 6.0000 0.0000
vn -0.5774 0.5774 0.5774
vn 0.5774 0.5774 0.5774
vn 0.5774 0.5774 -0.5774
vn -0.5774 0.5774 -0.5774
vn 0.5774 -0.5774 0.5774
vn -0.5774 -0.5774 0.5774
vn -0.5774 -0.5774 -0.5774
vn 0.5774 -0.5774 -0.5774
usemtl None
s 1
f 2/1/1 7/2/2 8/3/3 1/4/4
f 4/5/5 3/6/6 5/7/7 6/8/8
f 4/5/5 7/2/2 2/1/1 3/6/6
f 6/8/8 5/7/7 1/4/4 8/3/3
f 12/9/5 14/10/8 13/11/3 11/12/2
f 9/13/6 15/14/7 14/15/8 12/16/5
f 16/17/1 11/18/2 13/19/3 10/20/4
f 21/21/6 19/22/1 24/23/4 18/24/7
f 9/25/6 12/9/5 11/12/2 16/26/1
f 13/27/3 14/28/8 15/29/7 10/30/4
f 22/31/5 17/32/8 23/33/3 20/34/2
f 21/35/6 18/36/7 17/37/8 22/38/5
f 19/39/1 20/40/2 23/41/3 24/42/4
f 21/21/6 22/31/5 20/34/2 19/22/1
f 23/43/3 17/44/8 18/24/7 24/23/4
f 9/25/6 16/26/1 10/30/4 15/29/7
f 7/2/2 4/5/5 6/8/8 8/3/3
f 3/6/6 2/1/1 1/4/4 5/7/7
