# Blender v2.77 (sub 0) OBJ File: 'mod_walls.blend'
# www.blender.org
mtllib wall_1over4.mtl
o roof_1:2.002_FloorPrototype04x01x04_(5).014
v -0.250000 1.000000 0.000000
v -0.250000 0.000000 -4.000000
v -0.250000 0.000000 0.000000
v -0.000000 1.000000 0.000000
v -0.000000 0.000000 0.000000
v -0.000000 0.000000 -4.000000
vt 0.0000 0.0000
vt 0.0000 0.0000
vt 0.0000 0.0000
vt 0.0000 0.0000
vt 0.0000 0.0000
vt 0.0000 0.0000
vn -0.5774 -0.5774 0.5774
vn -0.5656 0.6500 0.5075
vn -0.5380 -0.1030 -0.8366
vn 0.5774 -0.5774 0.5774
vn 0.5380 -0.1030 -0.8366
vn 0.5656 0.6500 0.5075
usemtl None
s 1
f 3/1/1 1/2/2 2/3/3
f 5/4/4 6/5/5 4/6/6
f 2/3/3 1/2/2 4/6/6 6/5/5
f 3/1/1 2/3/3 6/5/5 5/4/4
f 1/2/2 3/1/1 5/4/4 4/6/6
