# Blender v2.77 (sub 0) OBJ File: 'mod_walls.blend'
# www.blender.org
mtllib wall_window.mtl
o FloorPrototype04x01x04_(5).001
v -0.500000 -0.000000 0.250000
v -0.500000 4.000000 0.000000
v -0.000000 4.000000 0.250000
v -0.000000 -0.000000 0.250000
v -0.000000 4.000000 0.000000
v -0.000000 -0.000000 -0.000000
v -0.500000 -0.000000 0.000000
v -0.500000 4.000000 0.250000
v -3.500000 -0.000000 0.000000
v -4.000000 -0.000000 0.000000
v -4.000000 4.000000 0.250000
v -3.500000 4.000000 0.250000
v -4.000000 -0.000000 0.250000
v -3.500000 -0.000000 0.250000
v -3.500000 4.000000 0.000000
v -4.000000 4.000000 0.000000
v -1.279718 2.961571 0.250000
v -2.720283 2.961571 0.250000
v -1.279718 1.014861 0.250000
v -2.720282 1.014861 0.250000
v -1.279718 2.961571 0.000000
v -2.720283 2.961571 0.000000
v -1.279718 1.014861 0.000000
v -2.720282 1.014861 0.000000
v -1.218251 0.980425 -0.043019
v -1.218251 3.019575 -0.043019
v -2.781751 3.019575 -0.043019
v -2.781750 0.980425 -0.043019
v -1.290869 1.075135 -0.043019
v -1.290869 2.924865 -0.043019
v -2.709133 2.924865 -0.043019
v -2.709133 1.075135 -0.043019
v -1.218251 0.980425 0.000148
v -1.218251 3.019575 0.000148
v -2.781751 3.019575 0.000148
v -2.781750 0.980425 0.000148
v -1.290869 1.075135 0.284664
v -1.290869 2.924865 0.284664
v -2.709133 2.924865 0.284664
v -2.709133 1.075135 0.284664
v -2.781750 0.980425 0.284664
v -2.781750 3.019575 0.284664
v -1.218251 3.019575 0.284664
v -1.218251 0.980425 0.284664
v -2.781750 0.980425 0.249096
v -2.781750 3.019575 0.249096
v -1.218251 3.019575 0.249096
v -1.218251 0.980425 0.249096
v -2.668964 1.127523 0.008386
v -2.642522 1.162009 0.086757
v -2.642522 2.837991 0.086757
v -2.668964 2.872477 0.008386
v -1.331037 1.127523 0.008386
v -1.357479 1.162009 0.086757
v -1.357479 2.837991 0.086757
v -1.331037 2.872477 0.008386
v -2.669655 2.873378 0.236402
v -2.642522 2.837991 0.158697
v -1.330346 2.873378 0.236402
v -1.357479 2.837991 0.158697
v -2.642522 1.162009 0.158697
v -2.669655 1.126622 0.236402
v -1.357479 1.162009 0.158697
v -1.330346 1.126622 0.236402
v -1.160588 0.804435 0.011914
v -2.839413 0.804435 0.011914
v -1.160588 1.025007 0.011914
v -2.839413 1.025007 0.011914
v -1.160588 0.804435 -0.059104
v -2.839413 0.804435 -0.059105
v -1.160588 1.025007 -0.059104
v -2.839413 1.025007 -0.059105
vt 12.0000 0.0000
vt 14.0000 0.0000
vt 14.0000 8.0000
vt 12.0000 8.0000
vt 10.0000 0.0000
vt 10.0000 8.0000
vt 8.0000 8.0000
vt 8.0000 -0.0000
vt 10.0000 0.0000
vt 10.0000 8.0000
vt 6.0000 8.0000
vt 6.0000 0.0000
vt 8.0000 -0.0000
vt 8.0000 8.0000
vt 12.0000 0.0000
vt 12.0000 8.0000
vt 6.0000 8.0000
vt 6.0000 0.0000
vt 11.4078 6.2235
vt 10.5922 6.2235
vt 10.5922 1.7765
vt 11.4078 1.7765
vt 7.4078 6.2235
vt 6.5922 6.2235
vt 6.5922 1.7765
vt 7.4078 1.7765
vt 0.0000 0.0000
vt 0.0000 0.0000
vt 0.0000 0.0000
vt 0.0000 0.0000
vt 4.0000 1.0685
vt 4.0000 1.0685
vt 4.0000 1.6663
vt 4.0000 1.6663
vt 4.0000 1.6663
vt 4.0000 1.6663
vt 4.0000 1.0685
vt 4.0000 1.0685
vt 0.0000 0.0000
vt 0.0000 0.0000
vt 0.0000 0.0000
vt 0.0000 0.0000
vt 4.0000 1.0685
vt 4.0000 1.6663
vt 0.0000 0.0000
vt 0.0000 0.0000
vt 4.0000 1.6663
vt 4.0000 1.0685
vt 0.0000 0.0000
vt 0.0000 0.0000
vt 0.0000 0.0000
vt 0.0000 0.0000
vt 4.0000 1.6663
vt 4.0000 1.0685
vt 4.0000 1.0685
vt 4.0000 1.6663
vt 0.0000 0.0000
vt 0.0000 0.0000
vt 0.0000 0.0000
vt 0.0000 0.0000
vt 0.0000 0.0000
vt 0.0000 0.0000
vt 4.0000 1.0685
vt 4.0000 1.0685
vt 4.0000 1.6663
vt 4.0000 1.6663
vt 4.0000 1.6663
vt 4.0000 1.0685
vt 0.0000 0.0000
vt 0.0000 0.0000
vt 0.0000 0.0000
vt 0.0000 0.0000
vt 0.0000 0.0000
vt 0.0000 0.0000
vt 4.0000 1.6663
vt 4.0000 1.0685
vt 4.0000 1.0685
vt 4.0000 1.6663
vt 4.0000 1.0685
vt 4.0000 1.6663
vt 0.0000 0.0000
vt 0.0000 0.0000
vt 0.0000 0.0000
vt 0.0000 0.0000
vt 4.0000 1.0685
vt 4.0000 1.6663
vt 4.0000 1.6663
vt 4.0000 1.0685
vt 0.0000 0.0000
vt 0.0000 0.0000
vt 0.0000 0.0000
vt 0.0000 0.0000
vt 4.0000 1.0685
vt 4.0000 1.6663
vt 4.0000 1.6663
vt 4.0000 1.0685
vt 4.0000 1.0685
vt 4.0000 1.6663
vt 0.0000 0.0000
vt 0.0000 0.0000
vt 0.0000 0.0000
vt 0.0000 0.0000
vt 4.0000 1.0685
vt 4.0000 1.6663
vt 0.0000 0.0000
vt 0.0000 0.0000
vt 0.0000 0.0000
vt 0.0000 0.0000
vt 0.0000 0.0000
vt 0.0000 0.0000
vt 0.0000 0.0000
vt 0.0000 0.0000
vn 0.7071 -0.0000 0.7071
vn 0.7071 0.0000 -0.7071
vn -0.7071 -0.0000 0.7071
vn -0.7071 0.0000 -0.7071
vn -0.0000 -0.0000 1.0000
vn -0.0000 0.0000 -1.0000
vn -0.5774 0.5774 -0.5774
vn 0.5774 0.5774 -0.5774
vn -0.1152 -0.1226 -0.9857
vn 0.1152 -0.1226 -0.9857
vn -0.1152 0.1226 -0.9857
vn 0.1152 0.1226 -0.9857
vn -1.0000 -0.0000 0.0000
vn -0.7071 0.7071 0.0000
vn 0.7071 0.7071 0.0000
vn 1.0000 -0.0000 0.0000
vn 0.5236 -0.4727 0.7088
vn -0.5236 -0.4727 0.7088
vn -0.1113 -0.1184 0.9867
vn 0.1113 -0.1184 0.9867
vn -0.5236 0.4727 0.7088
vn -0.1113 0.1184 0.9867
vn 0.5236 0.4727 0.7088
vn 0.1113 0.1184 0.9867
vn 0.5774 0.5774 0.5774
vn -0.5774 0.5774 0.5774
vn -0.5774 -0.5774 0.5774
vn 0.5774 -0.5774 0.5774
vn -0.7071 -0.7071 0.0000
vn 0.7071 -0.7071 0.0000
vn 0.6940 -0.6636 -0.2793
vn -0.6940 -0.6636 -0.2793
vn -0.6927 -0.6611 0.2882
vn 0.6927 -0.6611 0.2882
vn 0.6940 0.6636 -0.2793
vn 0.6927 0.6611 0.2882
vn -0.6940 0.6636 -0.2793
vn -0.6927 0.6611 0.2882
vn -0.5337 0.4836 -0.6938
vn -0.5337 -0.4836 -0.6938
vn 0.5337 0.4836 -0.6938
vn 0.5337 -0.4836 -0.6938
vn 0.5774 -0.5774 -0.5774
vn -0.5774 -0.5774 -0.5774
usemtl None
s 1
f 4/1/1 6/2/2 5/3/2 3/4/1
f 13/5/3 11/6/3 16/7/4 10/8/4
f 1/9/5 4/1/1 3/4/1 8/10/5
f 5/11/2 6/12/2 7/13/6 2/14/6
f 13/5/3 14/15/5 12/16/5 11/6/3
f 15/17/6 9/18/6 10/8/4 16/7/4
f 18/19/5 17/20/5 8/10/5 12/16/5
f 19/21/5 20/22/5 14/15/5 1/9/5
f 21/23/6 22/24/6 15/17/6 2/14/6
f 24/25/6 23/26/6 7/13/6 9/18/6
f 17/20/5 19/21/5 1/9/5 8/10/5
f 23/26/6 21/23/6 2/14/6 7/13/6
f 20/22/5 18/19/5 12/16/5 14/15/5
f 22/24/6 24/25/6 9/18/6 15/17/6
usemtl None_NONE
f 27/27/7 26/28/8 30/29/9 31/30/10
f 25/31/2 29/32/11 30/33/9 26/34/8
f 27/35/7 31/36/10 32/37/12 28/38/4
f 25/39/2 28/40/4 32/41/12 29/42/11
f 27/35/7 28/38/4 36/43/13 35/44/14
f 26/28/8 27/27/7 35/45/14 34/46/15
f 25/31/2 26/34/8 34/47/15 33/48/16
f 57/49/17 59/50/18 38/51/19 39/52/20
f 59/53/18 64/54/21 37/55/22 38/56/19
f 64/57/21 62/58/23 40/59/24 37/60/22
f 43/61/25 42/62/26 39/52/20 38/51/19
f 41/63/27 40/64/24 39/65/20 42/66/26
f 43/67/25 38/56/19 37/55/22 44/68/28
f 41/69/27 44/70/28 37/60/22 40/59/24
f 44/70/28 41/69/27 45/71/29 48/72/30
f 42/62/26 43/61/25 47/73/15 46/74/14
f 41/63/27 42/66/26 46/75/14 45/76/29
f 43/67/25 44/68/28 48/77/30 47/78/15
f 62/79/23 57/80/17 39/65/20 40/64/24
f 51/81/31 55/82/32 60/83/33 58/84/34
f 50/85/35 51/86/31 58/87/34 61/88/36
f 54/89/37 50/90/35 61/91/36 63/92/38
f 30/33/9 29/32/11 53/93/39 56/94/40
f 55/95/32 54/96/37 63/97/38 60/98/33
f 29/42/11 32/41/12 49/99/41 53/100/39
f 31/30/10 30/29/9 56/101/40 52/102/42
f 54/96/37 55/95/32 56/94/40 53/93/39
f 55/82/32 51/81/31 52/102/42 56/101/40
f 50/90/35 54/89/37 53/100/39 49/99/41
f 51/86/31 50/85/35 49/103/41 52/104/42
f 64/54/21 59/53/18 60/98/33 63/97/38
f 59/50/18 57/49/17 58/84/34 60/83/33
f 62/58/23 64/57/21 63/92/38 61/91/36
f 57/80/17 62/79/23 61/88/36 58/87/34
f 32/37/12 31/36/10 52/104/42 49/103/41
f 69/105/43 70/106/44 72/107/7 71/108/8
f 67/109/15 65/110/30 69/105/43 71/108/8
f 65/110/30 66/111/29 70/106/44 69/105/43
f 66/111/29 68/112/14 72/107/7 70/106/44
f 68/112/14 67/109/15 71/108/8 72/107/7
