# Blender v2.77 (sub 0) OBJ File: 'mod_walls.blend'
# www.blender.org
mtllib wall_flat.mtl
o wall_flat_FloorPrototype04x01x04_(5).000
v -0.000000 4.000000 0.250000
v -0.000000 -0.000000 0.250000
v -0.000000 4.000000 0.000000
v -0.000000 -0.000000 -0.000000
v -4.000000 -0.000000 0.000000
v -4.000000 4.000000 0.250000
v -4.000000 -0.000000 0.250000
v -4.000000 4.000000 0.000000
vt 12.0000 0.0000
vt 14.0000 0.0000
vt 14.0000 8.0000
vt 12.0000 8.0000
vt 10.0000 0.0000
vt 10.0000 8.0000
vt 8.0000 8.0000
vt 8.0000 -0.0000
vn 0.7071 -0.0000 0.7071
vn 0.7071 0.0000 -0.7071
vn -0.7071 -0.0000 0.7071
vn -0.7071 0.0000 -0.7071
usemtl None
s 1
f 2/1/1 4/2/2 3/3/2 1/4/1
f 7/5/3 6/6/3 8/7/4 5/8/4
f 1/4/1 6/6/3 7/5/3 2/1/1
f 3/3/2 4/2/2 5/8/4 8/7/4
