# Blender v2.77 (sub 0) OBJ File: 'mod_walls.blend'
# www.blender.org
mtllib wall_3over4.mtl
o wall_3:4_FloorPrototype04x01x04_(5).004
v -0.000000 2.750000 0.000000
v -0.000000 0.000000 -3.633738
v -0.000000 0.000000 0.000000
v 0.250000 2.750000 0.000000
v 0.250000 0.000000 0.000000
v 0.250000 0.000000 -3.633738
vt 0.0000 0.0000
vt 0.0000 0.0000
vt 0.0000 0.0000
vt 0.0000 0.0000
vt 0.0000 0.0000
vt 0.0000 0.0000
vn -0.5774 -0.5774 0.5774
vn -0.5507 0.7474 0.3717
vn -0.5437 -0.2671 -0.7956
vn 0.5774 -0.5774 0.5774
vn 0.5437 -0.2671 -0.7956
vn 0.5507 0.7474 0.3717
usemtl None
s 1
f 3/1/1 1/2/2 2/3/3
f 5/4/4 6/5/5 4/6/6
f 2/3/3 1/2/2 4/6/6 6/5/5
f 3/1/1 2/3/3 6/5/5 5/4/4
f 1/2/2 3/1/1 5/4/4 4/6/6
